<svg height="80" viewBox="0 0 200 80" fill="currentColor" xmlns="http://www.w3.org/2000/svg">
<path d="M85.8942 41.296C86.3102 41.296 86.6302 41.488 86.8542 41.872C87.1102 42.256 87.2382 42.784 87.2382 43.456C87.2382 44.704 86.9342 45.696 86.3262 46.432C84.5342 48.576 82.7902 50.08 81.0942 50.944C79.4302 51.808 77.4142 52.24 75.0462 52.24C73.3822 52.24 71.8462 52.032 70.4382 51.616C69.0302 51.2 67.3182 50.576 65.3022 49.744C63.4782 48.944 61.7182 48.288 60.0222 47.776C58.3902 50.752 55.9422 52.24 52.6782 52.24C50.8862 52.24 49.4622 51.84 48.4062 51.04C47.3182 50.208 46.7742 49.152 46.7742 47.872C46.7742 46.304 47.5262 45.008 49.0302 43.984C50.5342 42.928 52.5342 42.4 55.0302 42.4H55.6542L56.5182 28.432C56.7102 25.232 57.2862 22.592 58.2462 20.512C59.2062 18.432 60.5342 16.656 62.2302 15.184C63.7022 13.904 65.3822 12.944 67.2702 12.304C69.1582 11.632 71.1582 11.296 73.2702 11.296C76.7262 11.296 79.3822 12.192 81.2382 13.984C83.0942 15.776 84.0222 18.112 84.0222 20.992C84.0222 22.944 83.6702 24.528 82.9662 25.744C82.2622 26.928 81.2862 27.52 80.0382 27.52C79.1422 27.52 78.4382 27.312 77.9262 26.896C77.4142 26.448 77.1582 25.824 77.1582 25.024C77.1582 24.736 77.2222 24.208 77.3502 23.44C77.5422 22.544 77.6382 21.744 77.6382 21.04C77.6382 19.696 77.2382 18.64 76.4382 17.872C75.6702 17.072 74.4862 16.672 72.8862 16.672C70.0702 16.672 67.8942 17.6 66.3582 19.456C64.8222 21.28 63.8462 24.16 63.4302 28.096L62.3262 38.992C62.1662 40.528 61.9582 41.856 61.7022 42.976C63.7502 43.328 66.3102 43.888 69.3822 44.656C71.1742 45.104 72.5502 45.424 73.5102 45.616C74.4702 45.808 75.3182 45.904 76.0542 45.904C77.9102 45.904 79.4942 45.6 80.8062 44.992C82.1502 44.352 83.4142 43.344 84.5982 41.968C84.9822 41.52 85.4142 41.296 85.8942 41.296ZM111.667 37.264C112.083 37.264 112.403 37.472 112.627 37.888C112.851 38.304 112.963 38.832 112.963 39.472C112.963 41.008 112.499 41.92 111.571 42.208C109.651 42.88 107.539 43.264 105.235 43.36C104.627 46.048 103.427 48.208 101.635 49.84C99.8428 51.44 97.8108 52.24 95.5388 52.24C93.6188 52.24 91.9708 51.776 90.5948 50.848C89.2508 49.92 88.2268 48.688 87.5228 47.152C86.8188 45.616 86.4668 43.952 86.4668 42.16C86.4668 39.728 86.9308 37.568 87.8588 35.68C88.7868 33.76 90.0668 32.272 91.6988 31.216C93.3308 30.128 95.1388 29.584 97.1228 29.584C99.5548 29.584 101.507 30.432 102.979 32.128C104.483 33.792 105.363 35.856 105.619 38.32C107.123 38.224 108.915 37.904 110.995 37.36C111.251 37.296 111.475 37.264 111.667 37.264ZM95.9228 47.152C96.9468 47.152 97.8268 46.736 98.5628 45.904C99.3308 45.072 99.8428 43.872 100.099 42.304C99.1068 41.632 98.3388 40.752 97.7948 39.664C97.2828 38.576 97.0268 37.424 97.0268 36.208C97.0268 35.696 97.0748 35.184 97.1708 34.672H96.9308C95.6508 34.672 94.5788 35.296 93.7148 36.544C92.8828 37.76 92.4668 39.488 92.4668 41.728C92.4668 43.488 92.8028 44.832 93.4748 45.76C94.1788 46.688 94.9948 47.152 95.9228 47.152ZM133.419 41.392C133.835 41.392 134.155 41.6 134.379 42.016C134.635 42.4 134.763 42.896 134.763 43.504C134.763 44.24 134.651 44.816 134.427 45.232C134.203 45.648 133.851 46.016 133.371 46.336C130.619 48.192 128.603 49.568 127.323 50.464L124.251 52.528C123.035 59.152 121.435 64.352 119.451 68.128C117.499 71.936 115.003 73.84 111.963 73.84C110.331 73.84 109.003 73.328 107.979 72.304C106.955 71.312 106.443 70 106.443 68.368C106.443 66.096 107.339 63.648 109.131 61.024C110.923 58.432 114.283 55.232 119.211 51.424L119.499 49.552C118.955 50.416 118.235 51.088 117.339 51.568C116.475 52.016 115.611 52.24 114.747 52.24C112.763 52.24 111.179 51.52 109.995 50.08C108.811 48.64 108.219 46.752 108.219 44.416C108.219 41.856 108.811 39.44 109.995 37.168C111.179 34.864 112.747 33.024 114.699 31.648C116.683 30.24 118.779 29.536 120.987 29.536C121.691 29.536 122.155 29.68 122.379 29.968C122.635 30.224 122.843 30.704 123.003 31.408C123.611 31.28 124.315 31.216 125.115 31.216C125.915 31.216 126.475 31.344 126.795 31.6C127.147 31.824 127.323 32.288 127.323 32.992C127.323 33.376 127.307 33.68 127.275 33.904C127.147 34.896 126.747 37.408 126.075 41.44C125.947 42.208 125.803 43.056 125.643 43.984C125.515 44.88 125.371 45.84 125.211 46.864C127.675 44.944 130.043 43.248 132.315 41.776C132.731 41.52 133.099 41.392 133.419 41.392ZM116.475 47.392C117.211 47.392 117.915 46.944 118.587 46.048C119.259 45.152 119.739 43.872 120.027 42.208L121.563 34C120.251 34.032 119.035 34.544 117.915 35.536C116.795 36.496 115.899 37.776 115.227 39.376C114.555 40.976 114.219 42.672 114.219 44.464C114.219 45.456 114.411 46.192 114.795 46.672C115.211 47.152 115.771 47.392 116.475 47.392ZM112.491 69.184C113.291 69.184 114.187 68.224 115.179 66.304C116.203 64.384 117.179 61.328 118.107 57.136C115.643 59.248 113.867 61.152 112.779 62.848C111.691 64.544 111.147 66.032 111.147 67.312C111.147 67.856 111.243 68.304 111.435 68.656C111.659 69.008 112.011 69.184 112.491 69.184ZM139.924 52.24C138.036 52.24 136.42 51.776 135.076 50.848C133.764 49.888 132.772 48.64 132.1 47.104C131.428 45.568 131.092 43.92 131.092 42.16C131.092 39.728 131.54 37.568 132.436 35.68C133.364 33.76 134.612 32.272 136.18 31.216C137.748 30.128 139.508 29.584 141.46 29.584C143.348 29.584 144.964 30.064 146.308 31.024C147.652 31.952 148.66 33.184 149.332 34.72C150.004 36.256 150.34 37.904 150.34 39.664C150.34 42.096 149.876 44.272 148.948 46.192C148.02 48.08 146.756 49.568 145.156 50.656C143.588 51.712 141.844 52.24 139.924 52.24ZM140.452 47.056C141.54 47.056 142.452 46.464 143.188 45.28C143.956 44.096 144.34 42.368 144.34 40.096C144.34 38.336 144.02 37.008 143.38 36.112C142.74 35.216 141.972 34.768 141.076 34.768C139.924 34.768 138.964 35.36 138.196 36.544C137.46 37.696 137.092 39.424 137.092 41.728C137.092 43.552 137.412 44.896 138.052 45.76C138.692 46.624 139.492 47.056 140.452 47.056Z"/>
</svg>
