<svg xmlns="http://www.w3.org/2000/svg" viewBox="0 0 19.23 19.69" fill="white">
	<path d="M24.62,19.88a0.4,0.4,0,0,1-.31.08,0.81,0.81,0,0,0-.62.32,5.63,5.63,0,0,1-1.82,1.45,5.41,5.41,0,0,1-2.29.44A6.33,6.33,0,0,1,18.36,22q-0.69-.14-2-0.46-2.22-.55-3.69-0.81a16.29,16.29,0,0,0,.3-1.92l0.53-5.24a7.7,7.7,0,0,1,1.41-4.16,3.85,3.85,0,0,1,3.14-1.34,2.27,2.27,0,0,1,1.71.58,2,2,0,0,1,.58,1.52,5.57,5.57,0,0,1-.14,1.15,5.58,5.58,0,0,0-.09.76,1.13,1.13,0,0,0,.37.9,1.68,1.68,0,0,0,2.42-.55,4.53,4.53,0,0,0,.51-2.29,4.47,4.47,0,0,0-1.34-3.37,5.3,5.3,0,0,0-3.83-1.29A8.54,8.54,0,0,0,15.36,6,7.16,7.16,0,0,0,12.93,7.4,7.53,7.53,0,0,0,11,10a10.66,10.66,0,0,0-.83,3.81L9.77,20.49H9.47a4.93,4.93,0,0,0-2.89.76A2.2,2.2,0,0,0,5.5,23.12a1.84,1.84,0,0,0,.78,1.52,3.32,3.32,0,0,0,2.05.58,3.8,3.8,0,0,0,3.53-2.15,22.61,22.61,0,0,1,2.54.95,26,26,0,0,0,2.47.9,7.79,7.79,0,0,0,2.22.3A6.25,6.25,0,0,0,22,24.6a8.44,8.44,0,0,0,2.52-2.17A6,6,0,0,0,24.62,19.88Z" />
</svg>
